HIERARCHY
ROOT SpineBase
{
  OFFSET 0.000000 0.000000 0.000000
  CHANNELS 6 Xposition Yposition Zposition Zrotation Xrotation Yrotation
  JOINT SpineMid
  {
    OFFSET -0.000000 30.405125 0.000000
    CHANNELS 3 Zrotation Xrotation Yrotation
    JOINT SpineShoulder
    {
      OFFSET 0.150311 22.590221 -0.825297
      CHANNELS 3 Zrotation Xrotation Yrotation
      JOINT Neck
      {
        OFFSET 0.107188 7.477963 -0.621932
        CHANNELS 3 Zrotation Xrotation Yrotation
        JOINT Head
        {
          OFFSET 1.288040 14.849408 -2.244600
          CHANNELS 3 Zrotation Xrotation Yrotation
          End Site
          {
            OFFSET 0 0 0
          }
        }
      }
      JOINT ShoulderLeft
      {
        OFFSET -15.214143 -2.726670 -8.227201
        CHANNELS 3 Zrotation Xrotation Yrotation
        JOINT ElbowLeft
        {
          OFFSET -7.166083 -23.912142 -1.263705
          CHANNELS 3 Zrotation Xrotation Yrotation
          JOINT WristLeft
          {
            OFFSET 14.506001 -16.307979 -13.283592
            CHANNELS 3 Zrotation Xrotation Yrotation
            JOINT HandLeft
            {
              OFFSET 4.742808 -1.047530 2.608384
              CHANNELS 3 Zrotation Xrotation Yrotation
              JOINT HandTipLeft
              {
                OFFSET 3.238365 -0.788405 -3.417103
                CHANNELS 3 Zrotation Xrotation Yrotation
                End Site
                {
                  OFFSET 0 0 0
                }
              }
              JOINT ThumbLeft
              {
                OFFSET 1.520823 5.434866 -7.150638
                CHANNELS 3 Zrotation Xrotation Yrotation
                End Site
                {
                  OFFSET 0 0 0
                }
              }
            }
          }
        }
      }
      JOINT ShoulderRight
      {
        OFFSET 16.585259 -3.175236 5.632866
        CHANNELS 3 Zrotation Xrotation Yrotation
        JOINT ElbowRight
        {
          OFFSET 4.786676 -23.706573 4.790374
          CHANNELS 3 Zrotation Xrotation Yrotation
          JOINT WristRight
          {
            OFFSET -0.304332 -6.514555 -25.283211
            CHANNELS 3 Zrotation Xrotation Yrotation
            JOINT HandRight
            {
              OFFSET -3.625468 -2.347487 -8.433862
              CHANNELS 3 Zrotation Xrotation Yrotation
              JOINT HandTipRight
              {
                OFFSET -3.753546 -0.867401 -10.034590
                CHANNELS 3 Zrotation Xrotation Yrotation
                End Site
                {
                  OFFSET 0 0 0
                }
              }
              JOINT ThumbRight
              {
                OFFSET -3.624554 3.413884 -1.693036
                CHANNELS 3 Zrotation Xrotation Yrotation
                End Site
                {
                  OFFSET 0 0 0
                }
              }
            }
          }
        }
      }
    }
  }
  JOINT HipLeft
  {
    OFFSET -5.749489 1.541006 -5.880193
    CHANNELS 3 Zrotation Xrotation Yrotation
    JOINT KneeLeft
    {
      OFFSET -5.095756 -32.332644 -3.521902
      CHANNELS 3 Zrotation Xrotation Yrotation
      JOINT AnkleLeft
      {
        OFFSET -4.752717 -40.865482 6.755075
        CHANNELS 3 Zrotation Xrotation Yrotation
        JOINT FootLeft
        {
          OFFSET 4.768104 -3.647420 -13.216470
          CHANNELS 3 Zrotation Xrotation Yrotation
          End Site
          {
            OFFSET 0 0 0
          }
        }
      }
    }
  }
  JOINT HipRight
  {
    OFFSET 6.827325 0.252033 -1.434903
    CHANNELS 3 Zrotation Xrotation Yrotation
    JOINT KneeRight
    {
      OFFSET 1.566865 -35.738349 3.794535
      CHANNELS 3 Zrotation Xrotation Yrotation
      JOINT AnkleRight
      {
        OFFSET -0.285673 -37.727543 9.274467
        CHANNELS 3 Zrotation Xrotation Yrotation
        JOINT FootRight
        {
          OFFSET 1.688426 -8.380197 -6.329666
          CHANNELS 3 Zrotation Xrotation Yrotation
          End Site
          {
            OFFSET 0 0 0
          }
        }
      }
    }
  }
}
MOTION
Frames: 7
Frame Time: 0.033333
-48.181853 80.266320 342.625803 -2.434707 -1.873496 9.341323 0.000414 -0.451453 -9.462540 0.069683 -0.088896 -0.088120 6.329566 -7.063068 1.692197 0.000000 0.000000 0.000000 -100.738312 21.545377 22.957020 129.179771 -23.427299 2.782544 -54.704962 -0.440933 93.531029 20.119174 -34.917485 -66.905531 0.000000 0.000000 0.000000 0.000000 0.000000 0.000000 -99.982221 42.952282 53.146682 -2.146190 -35.132843 87.654463 -47.988810 -12.075255 -23.087612 28.393109 9.850290 0.534598 0.000000 0.000000 0.000000 0.000000 0.000000 0.000000 3.203654 8.349892 -10.466841 0.943331 -8.172752 1.253973 -10.574281 -24.945498 17.326786 0.000000 0.000000 0.000000 -0.384509 -1.939716 -9.861522 1.598916 1.567407 0.191551 2.311968 2.824487 -0.854871 0.000000 0.000000 0.000000
-49.117555 80.160069 342.269948 -2.548353 -2.603239 8.605114 0.100262 -0.411737 -8.742198 0.089568 -0.086615 -0.083345 6.389660 -5.970012 1.582305 0.000000 0.000000 0.000000 -81.592608 25.191986 18.913608 111.249554 -27.493561 1.258914 -58.943202 -3.939390 95.907094 23.589664 -40.679090 -70.408685 0.000000 0.000000 0.000000 0.000000 0.000000 0.000000 -99.854728 43.441720 54.605441 6.661147 -38.516140 85.200337 -42.685774 -13.135031 -15.016950 30.363146 13.481318 -1.539420 0.000000 0.000000 0.000000 0.000000 0.000000 0.000000 3.918486 8.540171 -9.823722 0.881933 -7.521926 1.367205 -9.925375 -18.248705 21.486512 0.000000 0.000000 0.000000 0.601632 -0.831181 -9.030693 1.603713 0.391736 0.261907 3.382688 -5.000546 -4.108965 0.000000 0.000000 0.000000
-50.134062 80.260411 341.884607 -2.685064 -3.346160 8.240673 0.193249 -0.319471 -8.397316 0.121661 -0.071798 -0.079935 6.638133 -4.819355 1.490649 0.000000 0.000000 0.000000 -57.929872 30.412233 12.964260 90.919780 -30.545926 0.966277 -64.227583 -7.699823 91.300596 23.698005 -42.745929 -70.595330 0.000000 0.000000 0.000000 0.000000 0.000000 0.000000 -97.738281 44.913285 56.028235 14.620317 -42.261576 81.064456 -31.838194 -11.353148 -9.848177 26.285188 15.964016 0.454075 0.000000 0.000000 0.000000 0.000000 0.000000 0.000000 4.779734 8.508773 -9.553815 0.755010 -6.614611 1.448120 -11.007968 -21.113363 18.756768 0.000000 0.000000 0.000000 1.716907 0.100970 -8.598523 1.501200 -0.431912 0.348113 -0.118879 1.264387 -0.884901 0.000000 0.000000 0.000000
-51.145877 80.633415 341.545529 -2.665684 -3.915411 7.845199 0.312549 -0.229327 -8.009070 0.193758 -0.038478 -0.067398 6.036028 -3.955624 1.320536 0.000000 0.000000 0.000000 -34.116826 29.065497 4.840206 70.749577 -28.632699 -4.735970 -68.759366 -10.836388 84.070449 22.863451 -42.928291 -72.857729 0.000000 0.000000 0.000000 0.000000 0.000000 0.000000 -95.629799 46.530264 57.192619 22.745192 -46.347884 77.009102 -22.390716 -7.693241 -5.840824 20.810583 15.232796 2.523128 0.000000 0.000000 0.000000 0.000000 0.000000 0.000000 5.407776 8.214657 -9.209345 0.646123 -5.618149 1.498451 -12.161172 -23.637873 15.842123 0.000000 0.000000 0.000000 2.835856 0.940777 -8.131972 1.079279 -1.282457 0.395609 -1.673681 4.769144 0.413329 0.000000 0.000000 0.000000
-52.073979 81.217467 341.306701 -2.507304 -4.264443 7.315970 0.420851 -0.127226 -7.473257 0.257224 -0.011104 -0.051288 5.506840 -3.949160 1.277730 0.000000 0.000000 0.000000 -17.331834 24.649196 -0.198989 59.059201 -21.047693 -10.338950 -68.987543 -12.292106 73.237922 14.992620 -37.137712 -79.430915 0.000000 0.000000 0.000000 0.000000 0.000000 0.000000 -92.768776 48.747564 58.329403 28.198362 -50.709065 72.098516 -14.672859 -2.085599 -3.792385 15.190790 11.233669 4.682020 0.000000 0.000000 0.000000 0.000000 0.000000 0.000000 5.731065 7.719950 -8.671689 0.656815 -4.633782 1.532033 -11.731849 -18.484797 18.413196 0.000000 0.000000 0.000000 3.764281 1.596885 -7.535393 0.558244 -1.946114 0.420381 -3.626180 6.953888 1.940064 0.000000 0.000000 0.000000
-52.842678 81.794136 341.023964 -2.192065 -4.685516 7.081165 0.474078 -0.132870 -7.222018 0.284165 -0.033769 -0.030672 4.976236 -3.280678 1.174588 0.000000 0.000000 0.000000 -7.581468 20.126844 -2.135667 51.068676 -15.556076 -15.086540 -63.809238 -11.674564 60.042604 15.522196 -29.683036 -74.000417 0.000000 0.000000 0.000000 0.000000 0.000000 0.000000 -89.409714 51.137036 59.158051 28.278140 -52.892664 65.744286 -10.802540 -4.585411 -7.447781 10.514324 15.840064 9.195477 0.000000 0.000000 0.000000 0.000000 0.000000 0.000000 5.744171 7.334320 -8.383293 0.809842 -3.706595 1.530326 -11.695847 -15.661433 18.303341 0.000000 0.000000 0.000000 4.357906 2.099449 -7.258113 0.131371 -2.277000 0.450461 -5.446272 8.409768 3.310042 0.000000 0.000000 0.000000
-53.405569 82.358387 340.825820 -1.715859 -5.072247 6.731720 0.492616 -0.164552 -6.840570 0.277575 -0.040618 -0.005468 4.454398 -2.625250 1.087700 0.000000 0.000000 0.000000 -2.617408 16.433362 -2.520740 46.224050 -11.504791 -18.550631 -68.284404 -13.691802 63.269213 10.306956 -33.688940 -88.269551 0.000000 0.000000 0.000000 0.000000 0.000000 0.000000 -85.856429 53.746124 59.864969 25.268221 -55.266689 59.270560 -8.196321 -4.267803 -8.545732 9.062945 14.129537 7.747170 0.000000 0.000000 0.000000 0.000000 0.000000 0.000000 5.378193 7.118969 -7.942574 1.082742 -3.046196 1.521962 -11.054682 -7.690438 21.564233 0.000000 0.000000 0.000000 4.570026 2.482004 -6.871819 -0.271862 -2.361047 0.457950 -6.660606 8.139799 4.011006 0.000000 0.000000 0.000000
